<?xml version="1.0" encoding="utf-8"?>
<!-- Generator: Adobe Illustrator 22.1.0, SVG Export Plug-In . SVG Version: 6.00 Build 0)  -->
<svg version="1.1" xmlns="http://www.w3.org/2000/svg" xmlns:xlink="http://www.w3.org/1999/xlink" x="0px" y="0px"
	 viewBox="0 0 872 419" style="enable-background:new 0 0 872 419;" xml:space="preserve">
<style type="text/css">
	.st0{fill:#FFFFFF;}
	.st1{fill:none;}
</style>
<g id="Layer_1">
	<g>
		<path d="M293.9,218.7c-15.9,0-31.2,0-46.4,0c-15.2,0-30.3,0-45.7,0c4.8,28.2,42.2,34.3,54.5,18.8c10.4-13.1,22.3-11.5,35.3-10.6
			c-3.6,27.6-32.3,47.2-63.7,43.3c-35.9-4.4-59.4-35.8-54.2-72.3c5.1-35.5,33.5-57.9,67.9-53.4C277.8,149.1,299.4,179.1,293.9,218.7
			z M202.1,192.6c21.3,0,42.5,0,63.8,0c-4.9-15.4-15.7-23.3-31.3-23.4C218.3,169,207.4,176.8,202.1,192.6z"/>
		<path d="M420.5,145.9c0,41.4,0,81.3,0,122.7c-9.2-2.8-19.1,5.3-26.9-4.6c-0.4-0.4-3.4,1.4-5.2,1.9c-24.9,7.7-49.2,8.2-69.5-10.9
			c-20.4-19.2-23.6-43.8-16.1-69.5c9.7-33.5,45.6-50.1,80.9-38.6c4.8,1.6,7.9,4.3,14.1-0.2C402.6,143,412.1,145.9,420.5,145.9z
			 M326.1,206.4c-0.2,23.5,13.3,38.6,34.6,38.8c21.2,0.2,34.4-14,34.7-37.2c0.3-23.4-12.6-38.5-33.1-38.8
			C340.5,168.8,326.3,183.5,326.1,206.4z"/>
		<path d="M750.6,206.6c0.2-36.8,25-62.6,60.4-62.8c35.8-0.1,61,26.1,61,63.4c0,37.3-25.2,63.4-61.1,63.3
			C775.1,270.4,750.4,244.2,750.6,206.6z M776.9,206.7c-0.1,23.2,13,38.2,33.5,38.5c21.6,0.3,35.1-14.4,35.1-38.1
			c0-23-13.3-37.9-34.1-38C790.6,169.1,777.1,183.8,776.9,206.7z"/>
		<path d="M536,177.9c-7.5,3.7-14.5,7.2-23,11.3c-1.2-3.5-4.2-10.5-11.3-16.1c-2.9-2.3-10-7.9-19.7-7.1c-2.7,0.2-9.4,0.6-14,6
			c-3.2,3.8-3.8,8.1-4,10c0.4,2.5,1.3,6,4,9c7.3,8.2,18.8,2.2,37,7c5.6,1.5,20.2,5.4,27.2,17.8c3.6,6.5,4,13.2,4.1,15.1
			C537,249.1,526,263,506,269.2c-31.7,9.8-61-2.2-73.2-30.5c6.9-3.4,13.8-6.9,22.1-11c8.3,16.7,22.5,22,40,19.5
			c7.7-1.1,15-3.4,15.3-13.1c0.3-8.9-5.8-12.3-13.4-13.6c-8.9-1.5-17.9-2.3-26.7-4.2c-21.3-4.7-31.7-17.3-31-36.7
			c0.7-18.4,13.4-31.2,34.2-34.1C503.4,141.3,523.5,151.4,536,177.9z"/>
		<path d="M552.8,148.8c9,0,16.7,0,25.9,0c0,25.5-0.2,50.6,0.1,75.6c0.1,6.5,1.8,12.2,5.6,16.4c3.2,3.6,7.2,5,10,6
			c2.4,0.9,9.7,3.4,18.7,1.2c3.7-0.9,11-2.7,15-9c2.3-3.6,2.5-7.2,3-14c0.4-5.8,0-13,0-13l0,0c0.7-25.9,0.8-48.1,0.8-48.1
			c0-6.5,0-11.7,0-14.8c8.6,0,16.2,0,25.5,0c0,19.6,0,39.1,0,58.6c0,19.6,0,39.3,0,58.8c-15.7,4.2-22.5,3-26.5-4.7
			c-16.3,11.8-33.9,14-52.3,6.1c-15.3-6.6-24.9-18.6-25.5-35.3C552.1,205.1,552.8,177.6,552.8,148.8z"/>
		<path d="M21,149c0-9,0-18,0-27c8.7,0,17.3,0,26,0c0.1,8.7,0.2,17.3,0.3,26c9.2,0,18.4,0,27.7,0c0,7.7,0,15.3,0,23
			c-9,0-18-0.1-27-0.1c0,22-0.7,43,0.3,64c0.5,9.3,8.8,12.6,17.5,11.9c4.6-0.3,9.1-2.1,14.5-3.5c2.3,5.7,4.7,11.8,7.5,18.7
			c-15.9,10.3-32.1,10.8-48.4,3.8c-14.8-6.3-20-19.1-20.2-34.4c-0.1-19.6,0-39.1,0-59.5c-6.4,0-12.8,0-19.2,0c0-7.7,0-15.3,0-23
			C7,149,14,149,21,149z"/>
		<path d="M126.1,267.9c-9,0-16.7,0-25.2,0c0-39.4,0-78.6,0-118.7c8.4-0.1,16.7-0.1,25.1-0.2c0.2,2.8,0.3,5.6,0.5,8.5
			c2.3-2,5.5-4.3,9.5-6.5c4.8-2.6,8.9-3.9,10.5-4.3c4.3-1.2,10.1-2.9,17.3-1.8c4.8,0.8,8.2,1.3,10.2,4.1c1.9,2.7,0.9,5.4,1,16
			c0,3,0.1,5.5,0.2,7.1c-30-7.8-47.9,5.9-49.1,36.6c-0.4,9.8-0.1,19.7-0.1,29.5C126.1,247.6,126.1,257.1,126.1,267.9z"/>
		<path d="M703,156c6.7-4.3,12.7-6.7,17-8c2.4-0.8,10.3-3.1,20.5-2.8c7.7,0.2,9.6,1.8,10.5,2.8c1,1.1,1.8,2.8,2,11
			c0.1,4.9-0.1,9.1-0.3,12.3c-34.3-5.3-48.9,7.7-49,42c0,17.9,0,35.9,0,54.5c-8.7,0-16.4,0-26,0c0-19.6,0-39.4,0-59.2
			c0-19.6,0-39.1,0-59.5c8.4,0,16.1,0,24.6,0C702.5,151.4,702.7,153.7,703,156z"/>
		<path class="st0" d="M202.1,192.6c5.2-15.9,16.2-23.6,32.5-23.4c15.6,0.1,26.4,8,31.3,23.4C244.6,192.6,223.5,192.6,202.1,192.6z"
			/>
		<path class="st0" d="M326.1,206.4c0.2-23,14.4-37.7,36.2-37.3c20.5,0.4,33.4,15.4,33.1,38.8c-0.3,23.2-13.4,37.4-34.7,37.2
			C339.4,245.1,325.9,229.9,326.1,206.4z"/>
		<path class="st0" d="M776.9,206.7c0.1-22.9,13.7-37.6,34.5-37.6c20.7,0.1,34.1,14.9,34.1,38c0,23.7-13.5,38.3-35.1,38.1
			C789.9,245,776.8,229.9,776.9,206.7z"/>
	</g>
	<rect y="122" class="st1" width="872" height="151"/>
	<rect x="836" y="336" class="st1" width="872" height="151"/>
</g>
<g id="Layer_2">
</g>
</svg>
